<?xml version="1.0" encoding="UTF-8"?>
<svg id="Layer_1" data-name="Layer 1" xmlns="http://www.w3.org/2000/svg" width="43" height="56" viewBox="0 0 43 56">
  <defs>
    <style>
      .cls-1 {
        fill: none;
        stroke: #000;
        stroke-miterlimit: 10;
      }
    </style>
  </defs>
  <g>
    <path d="M23.71,3.62c.85,2.1,2.58,5.64,6,9,3.59,3.53,7.36,5.21,9.52,6-2.13.76-5.92,2.44-9.52,6-3.5,3.47-5.2,7.14-6,9.24-.81-2.12-2.52-5.77-6-9.24-3.49-3.48-7.14-5.19-9.26-6,2.15-.83,5.78-2.55,9.26-6,3.39-3.36,5.14-6.88,6-9Z"/>
    <path class="cls-1" d="M23.71,3.62c.85,2.1,2.58,5.64,6,9,3.59,3.53,7.36,5.21,9.52,6-2.13.76-5.92,2.44-9.52,6-3.5,3.47-5.2,7.14-6,9.24-.81-2.12-2.52-5.77-6-9.24-3.49-3.48-7.14-5.19-9.26-6,2.15-.83,5.78-2.55,9.26-6,3.39-3.36,5.14-6.88,6-9Z"/>
  </g>
  <g>
    <path d="M10.89,30.62c.41,1.53,1.26,4.1,2.92,6.55,1.75,2.57,3.59,3.79,4.64,4.37-1.04.55-2.89,1.78-4.64,4.37-1.71,2.52-2.53,5.19-2.92,6.72-.39-1.54-1.23-4.2-2.92-6.72-1.7-2.53-3.48-3.78-4.51-4.37,1.05-.6,2.82-1.86,4.51-4.37,1.65-2.44,2.5-5.01,2.92-6.55Z"/>
    <path class="cls-1" d="M10.89,30.62c.41,1.53,1.26,4.1,2.92,6.55,1.75,2.57,3.59,3.79,4.64,4.37-1.04.55-2.89,1.78-4.64,4.37-1.71,2.52-2.53,5.19-2.92,6.72-.39-1.54-1.23-4.2-2.92-6.72-1.7-2.53-3.48-3.78-4.51-4.37,1.05-.6,2.82-1.86,4.51-4.37,1.65-2.44,2.5-5.01,2.92-6.55Z"/>
  </g>
</svg>